<svg xmlns="http://www.w3.org/2000/svg" viewBox="0 0 41.35 36"><defs><style>.cls-1{opacity:0.6;}.cls-2{fill:#f0632f;}</style></defs><title>Fichier 3</title><g id="Calque_2" data-name="Calque 2"><g id="Calque_1-2" data-name="Calque 1"><g class="cls-1"><path d="M15.26,30.16a2.92,2.92,0,1,0,2.92,2.92,2.92,2.92,0,0,0-2.92-2.92"/><path d="M25.88,30.16a2.92,2.92,0,1,0,2.92,2.92,2.92,2.92,0,0,0-2.92-2.92"/><path d="M29,24.1a.71.71,0,0,0,.1-.13h0l0,0a.89.89,0,0,0,.08-.18l4.09-10.53a1.53,1.53,0,0,0-.54-1.81,2.26,2.26,0,0,0-1.3-.41H9.15L8,6.6a1.34,1.34,0,0,0-1.28-.95l-5.43,0C.54,5.62,0,6,0,6.67A1.32,1.32,0,0,0,1.26,8L6,8.08l5.47,20.7H29.06c.86,0,1.56-.5,1.56-1.11s-.7-1.11-1.56-1.11H13.33l-.57-2.1H28.13A1.18,1.18,0,0,0,29,24.1"/></g><circle class="cls-2" cx="32.66" cy="8.69" r="8.69"/></g></g></svg>