<svg xmlns="http://www.w3.org/2000/svg" viewBox="0 0 33.41 30.38"><title>Fichier 2</title><g id="Calque_2" data-name="Calque 2"><g id="Calque_1-2" data-name="Calque 1"><path d="M15.26,24.54a2.92,2.92,0,1,0,2.92,2.92,2.92,2.92,0,0,0-2.92-2.92"/><path d="M25.88,24.54a2.92,2.92,0,1,0,2.92,2.92,2.92,2.92,0,0,0-2.92-2.92"/><path d="M29,18.48a.71.71,0,0,0,.1-.13h0l0,0a.89.89,0,0,0,.08-.18L33.31,7.59a1.53,1.53,0,0,0-.54-1.81,2.26,2.26,0,0,0-1.3-.41H9.15L8,1A1.34,1.34,0,0,0,6.68,0L1.25,0C.54,0,0,.4,0,1a1.32,1.32,0,0,0,1.26,1.3L6,2.46l5.47,20.7H29.06c.86,0,1.56-.5,1.56-1.11S29.92,21,29.06,21H13.33l-.57-2.1H28.13a1.18,1.18,0,0,0,.88-.38"/></g></g></svg>