<svg xmlns="http://www.w3.org/2000/svg" viewBox="0 0 26.68 24.02"><defs><style>.cls-1{fill:#fff;}</style></defs><title>Fichier 6</title><g id="Calque_2" data-name="Calque 2"><g id="Calque_1-2" data-name="Calque 1"><path class="cls-1" d="M13.34,23.31c-1-1.05-2.25-2.14-3.52-3.28C5.45,16.1.5,11.66.5,6.74A6.24,6.24,0,0,1,6.73.5a7,7,0,0,1,6.14,4.44l.47,1.25.47-1.25A7,7,0,0,1,19.95.5a6.24,6.24,0,0,1,6.23,6.24c0,4.92-4.95,9.37-9.32,13.29C15.59,21.17,14.38,22.25,13.34,23.31Z"/><path d="M19.95,1a5.74,5.74,0,0,1,5.73,5.74c0,4.7-4.86,9.06-9.15,12.91-1.14,1-2.22,2-3.19,2.95-1-1-2.05-1.93-3.19-2.95C5.86,15.8,1,11.44,1,6.74A5.74,5.74,0,0,1,6.73,1a6.43,6.43,0,0,1,5.67,4.12l.94,2.5.94-2.5A6.43,6.43,0,0,1,19.95,1m0-1a7.44,7.44,0,0,0-6.6,4.77A7.45,7.45,0,0,0,6.73,0,6.74,6.74,0,0,0,0,6.74C0,13.51,8.73,19.2,13.34,24,18,19.2,26.68,13.51,26.68,6.74A6.74,6.74,0,0,0,19.95,0Z"/></g></g></svg>