<svg xmlns="http://www.w3.org/2000/svg" viewBox="0 0 30.2 32"><title>Fichier 2</title><g id="Calque_2" data-name="Calque 2"><g id="Calque_1-2" data-name="Calque 1"><path d="M2.57,28A1.17,1.17,0,0,1,1.4,26.81V2.57A1.17,1.17,0,0,1,2.57,1.4h21.5a.7.7,0,0,1,.7.7v18a5.14,5.14,0,0,1,1.4-.47V2.1A2.1,2.1,0,0,0,24.07,0H2.57A2.57,2.57,0,0,0,0,2.57V26.81a2.57,2.57,0,0,0,2.57,2.57h16A11.5,11.5,0,0,1,17.4,28Z"/><path d="M22.66,5.23H4a.48.48,0,0,0-.48.48v.45A.48.48,0,0,0,4,6.63H22.66Z"/><path d="M22.66,9.43H4a.48.48,0,0,0-.48.48v.45a.48.48,0,0,0,.48.48H22.66Z"/><path d="M22.66,13.61H4a.48.48,0,0,0-.48.48v.45A.48.48,0,0,0,4,15H22.66Z"/><path d="M22.66,17.8H4a.48.48,0,0,0-.48.48v.45a.48.48,0,0,0,.48.48H22.66Z"/><path d="M4,23.38H16.21a4.77,4.77,0,0,1,.33-1.4H4a.48.48,0,0,0-.48.48v.45A.48.48,0,0,0,4,23.38Z"/><path d="M29.26,21.45a3.17,3.17,0,0,0-2.13-.73h0a4.3,4.3,0,0,0-1,.11,3.68,3.68,0,0,0-1.4.63,2.36,2.36,0,0,0-.54.56l-.47.71L23.29,22a3.55,3.55,0,0,0-2.9-1.3A3,3,0,0,0,17.81,22a3.23,3.23,0,0,0-.46,1.4,5,5,0,0,0,0,.56,7.67,7.67,0,0,0,.25,1.84A5.77,5.77,0,0,0,18.81,28a13.79,13.79,0,0,0,1.38,1.4A26.13,26.13,0,0,0,23.76,32c1.16-.71,5.52-3.52,6.19-6.22a7.66,7.66,0,0,0,.25-1.84,3.18,3.18,0,0,0-.95-2.49"/></g></g></svg>